HIERARCHY
ROOT Hips
{
    OFFSET   0.000000   0.000000   0.000000
    CHANNELS 6 Xposition Yposition Zposition Zrotation Xrotation Yrotation
    JOINT Chest
    {
        OFFSET   0.000000   8.007230   0.000000
        CHANNELS 3 Zrotation Xrotation Yrotation
        JOINT Chest2
        {
            OFFSET   0.000000  22.077100   0.000000
            CHANNELS 3 Zrotation Xrotation Yrotation
            JOINT Neck
            {
                OFFSET   0.000000  23.255100   0.000000
                CHANNELS 3 Zrotation Xrotation Yrotation
                JOINT Head
                {
                    OFFSET   0.000000  14.370100   1.956600
                    CHANNELS 3 Zrotation Xrotation Yrotation
                    End Site
                    {
                        OFFSET   0.000000  19.566000   0.000000
                    }
                }
            }
            JOINT LeftCollar
            {
                OFFSET   3.911900  19.017000  -0.467063
                CHANNELS 3 Zrotation Xrotation Yrotation
                JOINT LeftShoulder
                {
                    OFFSET  10.383700   0.000000   0.000000
                    CHANNELS 3 Zrotation Xrotation Yrotation
                    JOINT LeftElbow
                    {
                        OFFSET  26.662100   0.001193   0.000980
                        CHANNELS 3 Zrotation Xrotation Yrotation
                        JOINT LeftWrist
                        {
                            OFFSET  28.869000  -0.000059  -0.000082
                            CHANNELS 3 Zrotation Xrotation Yrotation
                            JOINT LeftFinger0
                            {
                                OFFSET   2.044650  -2.323450   3.252850
                                CHANNELS 3 Zrotation Xrotation Yrotation
                                JOINT LeftFinger01
                                {
                                    OFFSET   3.088130   0.000000   0.000000
                                    CHANNELS 3 Zrotation Xrotation Yrotation
                                    JOINT LeftFinger02
                                    {
                                        OFFSET   2.639460   0.000000   0.000000
                                        CHANNELS 3 Zrotation Xrotation Yrotation
                                        End Site
                                        {
                                            OFFSET   2.582190   0.000000   0.000000
                                        }
                                    }
                                }
                            }
                            JOINT LeftFinger1
                            {
                                OFFSET   8.364480   0.000000   3.252850
                                CHANNELS 3 Zrotation Xrotation Yrotation
                                JOINT LeftFinger11
                                {
                                    OFFSET   4.646930   0.000000   0.000000
                                    CHANNELS 3 Zrotation Xrotation Yrotation
                                    JOINT LeftFinger12
                                    {
                                        OFFSET   2.323470   0.000000   0.000000
                                        CHANNELS 3 Zrotation Xrotation Yrotation
                                        End Site
                                        {
                                            OFFSET   2.273050   0.000000   0.000000
                                        }
                                    }
                                }
                            }
                            JOINT LeftFinger2
                            {
                                OFFSET   8.364490   0.000016   1.078090
                                CHANNELS 3 Zrotation Xrotation Yrotation
                                JOINT LeftFinger21
                                {
                                    OFFSET   5.111610   0.000000   0.000000
                                    CHANNELS 3 Zrotation Xrotation Yrotation
                                    JOINT LeftFinger22
                                    {
                                        OFFSET   2.788150   0.000016   0.000000
                                        CHANNELS 3 Zrotation Xrotation Yrotation
                                        End Site
                                        {
                                            OFFSET   2.727660   0.000000   0.000000
                                        }
                                    }
                                }
                            }
                            JOINT LeftFinger3
                            {
                                OFFSET   7.899780   0.000015  -1.078090
                                CHANNELS 3 Zrotation Xrotation Yrotation
                                JOINT LeftFinger31
                                {
                                    OFFSET   4.646930   0.000000   0.000000
                                    CHANNELS 3 Zrotation Xrotation Yrotation
                                    JOINT LeftFinger32
                                    {
                                        OFFSET   2.323470   0.000000   0.000000
                                        CHANNELS 3 Zrotation Xrotation Yrotation
                                        End Site
                                        {
                                            OFFSET   2.273050   0.000000   0.000000
                                        }
                                    }
                                }
                            }
                            JOINT LeftFinger4
                            {
                                OFFSET   7.435090   0.000000  -3.252850
                                CHANNELS 3 Zrotation Xrotation Yrotation
                                JOINT LeftFinger41
                                {
                                    OFFSET   3.717550   0.000000   0.000000
                                    CHANNELS 3 Zrotation Xrotation Yrotation
                                    JOINT LeftFinger42
                                    {
                                        OFFSET   1.858770   0.000000   0.000000
                                        CHANNELS 3 Zrotation Xrotation Yrotation
                                        End Site
                                        {
                                            OFFSET   1.818440   0.000000   0.000000
                                        }
                                    }
                                }
                            }
                        }
                    }
                }
            }
            JOINT RightCollar
            {
                OFFSET  -3.911910  19.017000  -0.467062
                CHANNELS 3 Zrotation Xrotation Yrotation
                JOINT RightShoulder
                {
                    OFFSET -10.383700   0.000014   0.000000
                    CHANNELS 3 Zrotation Xrotation Yrotation
                    JOINT RightElbow
                    {
                        OFFSET -26.662100   0.001225   0.001091
                        CHANNELS 3 Zrotation Xrotation Yrotation
                        JOINT RightWrist
                        {
                            OFFSET -28.869000  -0.000020  -0.000085
                            CHANNELS 3 Zrotation Xrotation Yrotation
                            JOINT RightFinger0
                            {
                                OFFSET  -2.044650  -2.323490   3.252850
                                CHANNELS 3 Zrotation Xrotation Yrotation
                                JOINT RightFinger01
                                {
                                    OFFSET  -3.088130   0.000000   0.000000
                                    CHANNELS 3 Zrotation Xrotation Yrotation
                                    JOINT RightFinger02
                                    {
                                        OFFSET  -2.639460   0.000000   0.000000
                                        CHANNELS 3 Zrotation Xrotation Yrotation
                                        End Site
                                        {
                                            OFFSET  -2.582190   0.000000   0.000000
                                        }
                                    }
                                }
                            }
                            JOINT RightFinger1
                            {
                                OFFSET  -8.364480   0.000000   3.252850
                                CHANNELS 3 Zrotation Xrotation Yrotation
                                JOINT RightFinger11
                                {
                                    OFFSET  -4.646930   0.000000   0.000000
                                    CHANNELS 3 Zrotation Xrotation Yrotation
                                    JOINT RightFinger12
                                    {
                                        OFFSET  -2.323470   0.000000   0.000000
                                        CHANNELS 3 Zrotation Xrotation Yrotation
                                        End Site
                                        {
                                            OFFSET  -2.273050   0.000000   0.000000
                                        }
                                    }
                                }
                            }
                            JOINT RightFinger2
                            {
                                OFFSET  -8.364480   0.000000   1.078090
                                CHANNELS 3 Zrotation Xrotation Yrotation
                                JOINT RightFinger21
                                {
                                    OFFSET  -5.111620   0.000000   0.000000
                                    CHANNELS 3 Zrotation Xrotation Yrotation
                                    JOINT RightFinger22
                                    {
                                        OFFSET  -2.788160   0.000000   0.000000
                                        CHANNELS 3 Zrotation Xrotation Yrotation
                                        End Site
                                        {
                                            OFFSET  -2.727660   0.000000   0.000000
                                        }
                                    }
                                }
                            }
                            JOINT RightFinger3
                            {
                                OFFSET  -7.899780   0.000000  -1.078090
                                CHANNELS 3 Zrotation Xrotation Yrotation
                                JOINT RightFinger31
                                {
                                    OFFSET  -4.646930   0.000000   0.000000
                                    CHANNELS 3 Zrotation Xrotation Yrotation
                                    JOINT RightFinger32
                                    {
                                        OFFSET  -2.323470   0.000000   0.000000
                                        CHANNELS 3 Zrotation Xrotation Yrotation
                                        End Site
                                        {
                                            OFFSET  -2.273050   0.000000   0.000000
                                        }
                                    }
                                }
                            }
                            JOINT RightFinger4
                            {
                                OFFSET  -7.435090   0.000000  -3.252850
                                CHANNELS 3 Zrotation Xrotation Yrotation
                                JOINT RightFinger41
                                {
                                    OFFSET  -3.717550   0.000000   0.000000
                                    CHANNELS 3 Zrotation Xrotation Yrotation
                                    JOINT RightFinger42
                                    {
                                        OFFSET  -1.858760   0.000000   0.000000
                                        CHANNELS 3 Zrotation Xrotation Yrotation
                                        End Site
                                        {
                                            OFFSET  -1.818440   0.000000   0.000000
                                        }
                                    }
                                }
                            }
                        }
                    }
                }
            }
        }
    }
    JOINT LeftHip
    {
        OFFSET   9.783030   0.000000   0.000000
        CHANNELS 3 Zrotation Xrotation Yrotation
        JOINT LeftKnee
        {
            OFFSET   0.000063 -41.789100   0.000608
            CHANNELS 3 Zrotation Xrotation Yrotation
            JOINT LeftAnkle
            {
                OFFSET   0.000048 -41.133200  -0.000184
                CHANNELS 3 Zrotation Xrotation Yrotation
                JOINT LeftToe
                {
                    OFFSET   0.000000  -6.358960  14.674500
                    CHANNELS 3 Zrotation Xrotation Yrotation
                    End Site
                    {
                        OFFSET   0.000000   0.000000   3.913200
                    }
                }
            }
        }
    }
    JOINT RightHip
    {
        OFFSET  -9.783030   0.000000   0.000000
        CHANNELS 3 Zrotation Xrotation Yrotation
        JOINT RightKnee
        {
            OFFSET   0.000071 -41.789100   0.001239
            CHANNELS 3 Zrotation Xrotation Yrotation
            JOINT RightAnkle
            {
                OFFSET   0.000037 -41.133200  -0.000166
                CHANNELS 3 Zrotation Xrotation Yrotation
                JOINT RightToe
                {
                    OFFSET   0.000000  -6.358960  14.674500
                    CHANNELS 3 Zrotation Xrotation Yrotation
                    End Site
                    {
                        OFFSET   0.000000   0.000000   3.913200
                    }
                }
            }
        }
    }
}
MOTION
Frames: 6
Frame Time:   0.016667
  0.430793  89.452500   2.758100  -3.967920  -7.489920  -4.178080   1.257910   4.514560   0.158524   2.515020   9.031530   0.218248   0.728796  -0.164535  -0.008168   1.197120  -0.333545   0.240977  -7.686470  -1.667460   0.655188 -73.511700  14.499500   2.908270  -0.027877  -5.793700 -21.774700  12.904500 -14.490600   9.678740  38.421400  31.815200 -60.109400 -32.514600   0.001522   0.001020 -11.257300   0.002340   0.000000 -28.375000   7.321800 -13.276000 -23.914100   0.002593  -0.008064 -16.739900   0.004939   0.000406 -28.302800   1.489420  -2.763490 -34.550800  -0.000275  -0.005278 -23.010900   0.014650   0.001039 -27.710400   1.460740  -2.778740 -30.480500   0.014704  -0.009195 -20.300000   0.011327  -0.002788 -28.518900   1.487880  -2.735980 -42.832000  -0.000684  -0.002091 -28.526100  -0.000444   0.003799   9.329910  -0.290903   8.506180  70.594200   7.401620  -7.586370  -3.781040 -12.278700  20.314900 -11.422800   6.965420   0.642541 -37.890900  31.190200  63.663600  31.491600   0.001786  -0.001008  10.745800   0.004333   0.005414  31.459100   6.999100  11.263500  26.304600   0.007888  -0.003600  18.413200   0.006833  -0.002701  28.557400   3.537970   6.467060  40.681400  -0.001129  -0.010679  27.093800   0.001077  -0.005484  28.372000   2.763820   5.102050  36.095600   0.000407  -0.006568  24.039600   0.007237   0.000059  38.390600  -0.619824  -0.781574  57.592000   0.006234  -0.004093  38.356300  -0.002156  -0.009730   2.294470  11.788900   2.763600   0.964667   0.265200   4.524700  -0.605588  -5.123150   4.162070   0.000000   0.000000   0.000000   4.058390  10.141200  -5.066850  -0.394765   1.497400  -6.994740  -1.014370  -4.717480   1.781280   0.000000   0.000000   0.000000
  0.419933  89.452500   2.748340  -3.970060  -7.508690  -4.184020   1.258160   4.539830   0.147495   2.516460   9.081810   0.195527   0.728776  -0.182982  -0.008141   1.197250  -0.370866   0.266411  -7.676180  -1.662010   0.672951 -73.507900  14.499100   2.955790   0.001255  -5.785550 -21.994700  12.887200 -14.744500   9.705830  38.391500  31.738500 -60.023300 -32.503100   0.001509   0.001032 -11.251600   0.002335  -0.000000 -28.419500   7.308840 -13.231800 -23.946800   0.002586  -0.008064 -16.762800   0.004935   0.000406 -28.313500   1.463830  -2.714920 -34.635300  -0.000281  -0.005272 -23.067200   0.014650   0.001034 -27.722100   1.435700  -2.729890 -30.538400   0.014708  -0.009193 -20.338500   0.011332  -0.002786 -28.570900   1.469880  -2.697330 -42.908600  -0.000691  -0.002091 -28.577100  -0.000448   0.003799   9.333850  -0.292308   8.515970  70.600200   7.392380  -7.671510  -3.925490 -12.111200  20.730500 -11.403200   7.351870   0.819260 -37.827900  31.030000  63.468500  31.483800   0.001770  -0.000985  10.741900   0.004322   0.005413  31.431900   6.989310  11.259800  26.281400   0.007879  -0.003604  18.397000   0.006828  -0.002701  28.559600   3.528670   6.449860  40.688200  -0.001136  -0.010677  27.098300   0.001066  -0.005481  28.377000   2.756150   5.086900  36.143500   0.000392  -0.006564  24.071500   0.007237   0.000112  38.436700  -0.632588  -0.796202  57.661500   0.006225  -0.004069  38.402600  -0.002162  -0.009727   2.305110  11.823300   2.764010   0.965077   0.228918   4.531720  -0.609561  -5.105980   4.161790   0.000000   0.000000   0.000000   4.071260  10.152500  -5.066900  -0.401595   1.495030  -6.988640  -1.023220  -4.712180   1.783230  -0.000000   0.000000  -0.000000
  0.401297  89.452500   2.731130  -3.974470  -7.542940  -4.198650   1.258530   4.584010   0.130473   2.518710   9.169790   0.160328   0.728755  -0.201428  -0.008082   1.197410  -0.408187   0.291845  -7.658270  -1.652130   0.704665 -73.498300  14.499300   3.022870   0.051460  -5.775020 -22.375900  12.859900 -15.202700   9.758890  38.371400  31.658100 -59.933700 -32.476700   0.001485   0.001043 -11.238400   0.002329   0.000000 -28.487700   7.294410 -13.168500 -23.998100   0.002569  -0.008058 -16.798600   0.004924   0.000408 -28.330000   1.426710  -2.644360 -34.767900  -0.000292  -0.005257 -23.155500   0.014651   0.001020 -27.739800   1.399380  -2.658920 -30.627500   0.014719  -0.009188 -20.397800   0.011342  -0.002779 -28.652800   1.442850  -2.638860 -43.029400  -0.000709  -0.002091 -28.657600  -0.000460   0.003799   9.340670  -0.295494   8.533170  70.600500   7.382450  -7.795400  -4.167820 -11.878100  21.423700 -11.338000   7.738000   1.088280 -37.746200  30.777500  63.163200  31.462600   0.001721  -0.000942  10.731300   0.004293   0.005410  31.390800   6.970400  11.247900  26.245700   0.007859  -0.003613  18.372000   0.006818  -0.002697  28.564500   3.507470   6.410620  40.715000  -0.001154  -0.010671  27.116200   0.001039  -0.005474  28.387200   2.736130   5.048050  36.237500   0.000358  -0.006550  24.134200   0.007241   0.000186  38.520600  -0.655764  -0.822788  57.787800   0.006202  -0.004007  38.486700  -0.002177  -0.009722   2.325020  11.873300   2.764570   0.965473   0.192635   4.545310  -0.617439  -5.088810   4.161500   0.000000   0.000000   0.000000   4.093470  10.173300  -5.067100  -0.411663   1.492670  -6.979840  -1.038230  -4.703480   1.790790   0.000000   0.000000   0.000000
  0.385399  89.452600   2.715390  -3.984030  -7.576910  -4.219930   1.258720   4.624530   0.119236   2.520130   9.250560   0.136820   0.734677  -0.201355  -0.008000   1.207100  -0.408046   0.291034  -7.642380  -1.642000   0.735990 -73.483600  14.517700   3.053830   0.087027  -5.787990 -22.712800  12.839800 -15.659100   9.827390  38.384800  31.650600 -59.933800 -32.436000   0.001464   0.001012 -11.218000   0.002327   0.000000 -28.528900   7.293000 -13.136300 -24.030000   0.002542  -0.008039 -16.821000   0.004907   0.000413 -28.340400   1.406380  -2.606130 -34.853000  -0.000306  -0.005232 -23.212100   0.014654   0.000995 -27.750400   1.379470  -2.620470 -30.680600   0.014735  -0.009179 -20.433200   0.011351  -0.002766 -28.708100   1.424700  -2.600120 -43.110700  -0.000738  -0.002089 -28.711800  -0.000479   0.003799   9.346720  -0.299911   8.548840  70.582000   7.388950  -7.856470  -4.357570 -11.782300  21.982500 -11.222500   7.730550   1.251170 -37.684900  30.595600  62.908700  31.431200   0.001636  -0.000900  10.715600   0.004250   0.005387  31.371000   6.948600  11.222000  26.226400   0.007835  -0.003629  18.358500   0.006806  -0.002687  28.571200   3.477780   6.355590  40.780800  -0.001180  -0.010661  27.160100   0.001002  -0.005467  28.399600   2.704620   4.987720  36.350300   0.000309  -0.006521  24.209300   0.007248   0.000214  38.605500  -0.679168  -0.849710  57.915700   0.006168  -0.003906  38.571900  -0.002201  -0.009718   2.345180  11.894100   2.764570   0.963331   0.219760   4.560550  -0.626520  -5.100790   4.161860  -0.000000   0.000000  -0.000000   4.112500  10.194300  -5.067590  -0.416872   1.495570  -6.976880  -1.050820  -4.697720   1.805750  -0.000000   0.000000  -0.000000
  0.368586  89.452600   2.698440  -3.999320  -7.613730  -4.247650   1.258850   4.665940   0.110580   2.521240   9.333180   0.118476   0.747964  -0.200841  -0.007906   1.228970  -0.407062   0.285357  -7.625590  -1.631910   0.766793 -73.468000  14.551900   3.065460   0.118950  -5.824600 -23.066400  12.824700 -16.125900   9.885960  38.398700  31.632000 -59.956500 -32.395800   0.001436   0.000959 -11.197900   0.002326  -0.000000 -28.569200   7.293050 -13.123200 -24.062000   0.002507  -0.008012 -16.843400   0.004885   0.000419 -28.349700   1.397240  -2.587560 -34.936300  -0.000323  -0.005200 -23.267600   0.014657   0.000961 -27.759500   1.370500  -2.601820 -30.729800   0.014755  -0.009169 -20.466100   0.011363  -0.002748 -28.758800   1.415590  -2.577440 -43.186000  -0.000775  -0.002088 -28.761900  -0.000505   0.003798   9.352850  -0.305153   8.565490  70.551400   7.404800  -7.896420  -4.551540 -11.729800  22.536800 -11.045700   7.681110   1.379180 -37.708700  30.496700  62.725800  31.385100   0.001528  -0.000844  10.692500   0.004193   0.005352  31.347000   6.926180  11.197600  26.203800   0.007806  -0.003649  18.342700   0.006789  -0.002673  28.578900   3.442770   6.290780  40.842100  -0.001213  -0.010650  27.200900   0.000955  -0.005457  28.412700   2.665050   4.912490  36.464900   0.000247  -0.006486  24.285600   0.007260   0.000221  38.692400  -0.703129  -0.877232  58.046700   0.006123  -0.003781  38.659100  -0.002233  -0.009713   2.368660  11.913200   2.764550   0.961169   0.246883   4.577290  -0.637427  -5.112750   4.163900  -0.000000   0.000000   0.000000   4.133290  10.217600  -5.069050  -0.420550   1.498460  -6.973190  -1.063710  -4.690240   1.826100  -0.000000   0.000000   0.000000
  0.350845  89.452700   2.680600  -4.017710  -7.651230  -4.281410   1.258910   4.704860   0.105829   2.521840   9.410930   0.108058   0.765301  -0.180900  -0.007810   1.257420  -0.366580   0.256738  -7.607990  -1.623470   0.789754 -73.456900  14.583800   3.063320   0.152439  -5.878870 -23.424600  12.819200 -16.530900   9.912420  38.390600  31.610500 -60.038400 -32.376500   0.001390   0.000908 -11.188200   0.002337   0.000031 -28.614700   7.306730 -13.126200 -24.100500   0.002465  -0.007981 -16.870300   0.004856   0.000425 -28.359500   1.397010  -2.586010 -35.028300  -0.000347  -0.005163 -23.328900   0.014662   0.000921 -27.768700   1.370260  -2.600270 -30.781900   0.014778  -0.009158 -20.500800   0.011381  -0.002728 -28.803900   1.417070  -2.574940 -43.253700  -0.000819  -0.002090 -28.807000  -0.000535   0.003799   9.358860  -0.309987   8.581840  70.509600   7.423070  -7.924920  -4.741480 -11.725000  23.082400 -10.787800   7.475990   1.471370 -37.813500  30.496800  62.667600  31.325300   0.001408  -0.000765  10.662600   0.004123   0.005326  31.307500   6.904600  11.189400  26.169900   0.007774  -0.003670  18.318900   0.006770  -0.002660  28.588500   3.397600   6.207570  40.860400  -0.001247  -0.010644  27.213000   0.000899  -0.005444  28.426500   2.608760   4.806580  36.567200   0.000171  -0.006456  24.353700   0.007280   0.000069  38.783400  -0.728307  -0.905593  58.183800   0.006068  -0.003648  38.750400  -0.002270  -0.009704   2.396080  11.946000   2.764890   0.960050   0.246380   4.591510  -0.649388  -5.109480   4.170200  -0.000000   0.000000  -0.000000   4.156790  10.242600  -5.072150  -0.422776   1.497330  -6.963680  -1.076500  -4.677790   1.849770   0.000000   0.000000   0.000000
